# xmcd
#
# Track frame offsets:
#	150
#	20655
#	35927
#	53852
#	72702
#	90932
#	107675
#	125557
#	148865
#	170127
#	189675
#	207117
#	234780
#	255632
#	272295
#	295997
#	313470
#	336525
#
# Disc length: 4683 seconds
#
# Revision: 2
# Processed by: cddbd v1.5.1PL0 Copyright (c) Steve Scherf et al.
# Submitted via: EasyCDDAExtractor 8.0.2.1
#
DISCID=20124912
DTITLE=Varuous Artists - Happy Rave-4 CD #2
DYEAR=1996
DGENRE=Happy Hardcore
TTITLE0=Critical Mass - Believe in the future(Extended Version)
TTITLE1=Lipstick - Queen of the rhithm
TTITLE2=Wonderland - Be on a Star(Radio Mix)
TTITLE3=Q-Tex - Trip to the hyperdome
TTITLE4=Lexus Lovers - Beat of the bass
TTITLE5=Solid Base - The firl of dremas(Cixx Radio Mix)
TTITLE6=Phaze 2 Phaze Meets the Doctor - Tales from a crypt
TTITLE7=Hocus Pocus - Here's johnny(Digidance Happy Hardcore Mix)
TTITLE8=Ohm - Trip to paradise(Extended Version)
TTITLE9=Revolution Team - Makin' up your mind(Original Mix)
TTITLE10=James Daltan - Touch me
TTITLE11=Commotion - Stick it in
TTITLE12=Bertocucci Feranzano and Toni Salmonelli - Daddy Snow(Original Version)
TTITLE13=Cixx - Ride to the rhythm(Single Edit)
TTITLE14=Global Split - Power i want some(Jose Massarati Hardcore Mix)
TTITLE15=Angel - Take me away(Original Version)
TTITLE16=DJ Weirdo and Dr. Phil Omannski - Young birds(Original Mix)
TTITLE17=Sonic - They Call Me Sonic(Airrave)
EXTD=
EXTT0=
EXTT1=
EXTT2=
EXTT3=
EXTT4=
EXTT5=
EXTT6=
EXTT7=
EXTT8=
EXTT9=
EXTT10=
EXTT11=
EXTT12=
EXTT13=
EXTT14=
EXTT15=
EXTT16=
EXTT17=
PLAYORDER=
